<svg xmlns="http://www.w3.org/2000/svg" width="130" height="40" fill="none"><path fill="#FF9D28" d="M7 16.386h17.024v-6.382L7 16.386Z"/><path fill="#68C5ED" d="M24.024 10.004v22.523L32.069 7l-8.045 3.004Z"/><path fill="#044D80" d="M24.024 16.386H17.59l6.433 16.141V16.386Z"/><path fill="#E54747" d="m7 16.386 12.237 4.141-1.646-4.141H7Z"/><path fill="#044D80" d="M45.986 26.604c-.084.085-.254.203-.458.356a7.84 7.84 0 0 1-.848.424 8.1 8.1 0 0 1-1.29.357 8.879 8.879 0 0 1-1.732.152c-1.255 0-2.342-.203-3.258-.61-.917-.408-1.68-.968-2.275-1.698a7.214 7.214 0 0 1-1.324-2.563 12.22 12.22 0 0 1-.424-3.258c0-1.188.153-2.275.458-3.276a7.569 7.569 0 0 1 1.358-2.597 6.206 6.206 0 0 1 2.275-1.714c.916-.408 1.985-.611 3.207-.611.611 0 1.155.05 1.647.17.492.101.916.237 1.29.39.373.152.662.305.916.458.238.17.425.306.543.407.136.12.255.272.357.442.102.17.153.356.153.56 0 .305-.12.628-.357.933a9.279 9.279 0 0 1-.764.866c-.186-.187-.39-.373-.628-.577a4.116 4.116 0 0 0-.78-.51 4.755 4.755 0 0 0-.985-.373 4.63 4.63 0 0 0-1.222-.152c-.798 0-1.46.152-1.986.475a3.66 3.66 0 0 0-1.29 1.256 5.263 5.263 0 0 0-.696 1.765c-.135.662-.203 1.34-.203 2.02 0 .73.068 1.425.203 2.104.136.662.374 1.256.73 1.765.34.51.781.934 1.341 1.24.543.305 1.24.458 2.07.458.442 0 .833-.051 1.206-.17.373-.102.696-.238.967-.39a4.95 4.95 0 0 0 .73-.493c.204-.17.39-.322.526-.44.085.101.204.237.323.39.119.152.238.322.356.492.102.17.204.34.272.509.085.17.119.322.119.458 0 .204-.034.374-.12.51a4.414 4.414 0 0 1-.407.475Zm12.017-1.8c0 1.24.187 2.14.543 2.7a6.533 6.533 0 0 1-.78.237c-.238.05-.493.068-.764.068-.56 0-.985-.102-1.273-.323a1.418 1.418 0 0 1-.543-.933c-.34.356-.798.662-1.358.916-.56.255-1.256.374-2.07.374a4.69 4.69 0 0 1-1.274-.17 3.354 3.354 0 0 1-1.154-.577 3.163 3.163 0 0 1-.849-1.07c-.22-.44-.322-.984-.322-1.629 0-.798.187-1.443.577-1.935.39-.492.866-.9 1.443-1.188a6.271 6.271 0 0 1 1.884-.594c.679-.102 1.29-.187 1.85-.204.187-.017.373-.017.543-.017h.51v-.424c0-.594-.154-1.035-.476-1.273-.323-.254-.849-.373-1.562-.373-.678 0-1.273.102-1.799.322-.526.22-1.035.476-1.544.747-.22-.271-.39-.56-.526-.882-.136-.323-.204-.56-.204-.713 0-.221.119-.425.356-.628.238-.204.577-.39 1.002-.543.424-.17.9-.29 1.46-.39a9.39 9.39 0 0 1 1.73-.154c.85 0 1.562.085 2.14.255.593.17 1.069.441 1.425.798.373.356.628.814.78 1.34.153.544.238 1.172.238 1.884l.017 4.38ZM55 22.09h-.322c-.102 0-.221 0-.323.017-.39.034-.78.085-1.154.136-.39.067-.73.17-1.018.322a1.984 1.984 0 0 0-.73.611c-.187.255-.289.577-.289.967 0 .442.119.815.374 1.12.254.306.678.459 1.273.459.288 0 .577-.034.848-.119.272-.085.492-.186.696-.305.204-.12.357-.255.475-.408.12-.152.17-.288.17-.407v-2.393Zm8.843-4.617c.255-.288.645-.594 1.171-.9.526-.305 1.205-.458 2.003-.458.577 0 1.12.102 1.646.289.526.204.985.51 1.392.95.407.442.73 1.019.967 1.732.238.712.357 1.595.357 2.647 0 1.222-.136 2.224-.424 3.022-.289.797-.645 1.408-1.087 1.883-.441.459-.933.781-1.476.968a4.998 4.998 0 0 1-1.63.288c-.458 0-.848-.05-1.188-.152a4.633 4.633 0 0 1-.848-.34 2.496 2.496 0 0 1-.544-.373c-.118-.119-.203-.204-.237-.255v5.771h-3.191v-16.09a4.8 4.8 0 0 1 .288-.051c.102-.017.204-.034.34-.034.119 0 .271-.017.441-.017.526 0 .968.085 1.324.255.373.17.611.458.696.865Zm4.226 4.328c0-.475-.034-.9-.119-1.307-.084-.407-.203-.763-.39-1.052a2.049 2.049 0 0 0-.73-.696c-.305-.17-.679-.254-1.103-.254-.645 0-1.103.118-1.358.373-.254.255-.39.526-.39.815v4.973c.119.118.34.271.662.441.322.17.695.255 1.103.255.798 0 1.375-.306 1.748-.934.39-.61.577-1.477.577-2.614Zm5.788 4.04a3.758 3.758 0 0 1-.204-.985c-.034-.34-.05-.695-.05-1.035V12.94c.101-.016.22-.034.356-.05.102-.017.22-.034.356-.034.119 0 .255-.017.374-.017.254 0 .492.017.746.067.255.051.476.136.68.29.203.135.373.338.492.576.118.238.186.56.186.95v1.664h3.293v2.376h-3.293v5.007c0 1.086.442 1.63 1.341 1.63.22 0 .424-.034.628-.102.204-.068.373-.153.526-.238.153-.085.289-.17.407-.271.12-.102.204-.17.255-.204.238.34.407.645.543.9.119.254.187.492.187.712 0 .204-.085.408-.255.611-.17.204-.39.374-.696.543-.305.17-.661.306-1.086.408a5.923 5.923 0 0 1-1.392.152c-.967 0-1.73-.186-2.257-.56-.526-.407-.916-.9-1.137-1.51Zm14.308-.306c.39 0 .73-.05 1.035-.136.306-.084.56-.186.798-.322.238-.119.441-.255.611-.407.17-.153.322-.289.475-.408.187.238.39.544.594.9.204.373.306.662.306.9 0 .339-.204.661-.594.933-.323.255-.798.458-1.392.645-.594.187-1.307.271-2.122.271-.73 0-1.46-.101-2.172-.288a4.74 4.74 0 0 1-1.901-.985c-.56-.475-1.002-1.103-1.34-1.883-.34-.798-.51-1.783-.51-2.988 0-.984.153-1.833.458-2.546.306-.712.713-1.306 1.222-1.765a4.761 4.761 0 0 1 1.731-1.035 5.987 5.987 0 0 1 1.97-.323c.882 0 1.612.136 2.223.408a4.135 4.135 0 0 1 1.493 1.103c.39.458.662.984.832 1.578.17.595.255 1.223.255 1.884v.323c0 .119 0 .255-.017.39 0 .136-.017.272-.017.408 0 .135-.017.237-.034.322h-6.925c.068.866.322 1.579.797 2.139.459.594 1.206.882 2.224.882Zm1.07-4.752c0-.747-.153-1.358-.442-1.833-.289-.475-.815-.696-1.562-.696-.645 0-1.154.22-1.544.662-.39.441-.577 1.07-.577 1.867h4.124Zm8.435-3.259c.102-.136.22-.288.373-.458.153-.17.34-.323.577-.458.22-.136.475-.255.747-.357.272-.085.56-.136.883-.136.186 0 .39.017.594.051a2.4 2.4 0 0 1 .594.17c.186.085.322.204.441.357.102.152.17.322.17.543 0 .34-.085.73-.255 1.17-.17.442-.339.815-.509 1.138a3.49 3.49 0 0 0-.798-.51c-.271-.118-.577-.169-.933-.169-.492 0-.9.136-1.222.424-.323.289-.493.611-.493 1.019v7.587h-3.19v-11.44a4.8 4.8 0 0 1 .288-.051c.102-.017.204-.034.323-.034.118 0 .271-.017.44-.017.493 0 .934.102 1.308.289.34.186.56.475.662.882Zm9.063 0c.102-.136.221-.288.374-.458.152-.17.339-.323.577-.458.22-.136.475-.255.746-.357.272-.085.561-.136.883-.136.187 0 .39.017.594.051.204.034.407.085.594.17s.323.204.441.357c.102.152.17.322.17.543 0 .34-.085.73-.254 1.17-.17.442-.34.815-.51 1.138a3.485 3.485 0 0 0-.797-.51c-.272-.118-.577-.169-.934-.169-.492 0-.899.136-1.222.424-.322.289-.492.611-.492 1.019v7.587h-3.191v-11.44c.085-.017.17-.034.289-.051a1.87 1.87 0 0 1 .322-.034c.119 0 .272-.017.441-.017.493 0 .934.102 1.307.289.34.186.577.475.662.882Zm15.225 7.282c0 1.239.186 2.138.543 2.698a6.546 6.546 0 0 1-.781.238c-.237.05-.492.068-.764.068-.56 0-.984-.102-1.273-.323a1.42 1.42 0 0 1-.543-.933c-.339.356-.797.662-1.358.916-.56.255-1.256.374-2.07.374-.425 0-.849-.051-1.273-.17a3.353 3.353 0 0 1-1.154-.577 3.161 3.161 0 0 1-.849-1.07c-.221-.44-.322-.984-.322-1.629 0-.798.186-1.443.577-1.935.39-.492.865-.9 1.442-1.188a6.27 6.27 0 0 1 1.884-.594c.679-.102 1.29-.187 1.85-.204.187-.017.374-.017.543-.017h.51v-.424c0-.594-.153-1.035-.476-1.273-.322-.254-.848-.373-1.561-.373-.679 0-1.273.102-1.799.322-.526.22-1.036.476-1.545.747a3.6 3.6 0 0 1-.526-.882c-.136-.323-.204-.56-.204-.713 0-.221.119-.425.357-.628.238-.204.577-.39 1.001-.543.425-.17.9-.29 1.46-.39a9.388 9.388 0 0 1 1.731-.154c.849 0 1.562.085 2.139.255.594.17 1.069.441 1.425.798.374.356.628.814.781 1.34.153.544.238 1.172.238 1.884l.017 4.38Zm-3.004-2.716h-.323c-.102 0-.221 0-.322.017-.391.034-.781.085-1.155.136-.39.067-.729.17-1.018.322a1.991 1.991 0 0 0-.73.611c-.186.255-.288.577-.288.967 0 .442.119.815.373 1.12.255.306.679.459 1.273.459.289 0 .577-.034.849-.119.271-.085.492-.186.696-.305.203-.12.356-.255.475-.408.119-.152.17-.288.17-.407v-2.393Z"/></svg>