<svg xmlns="http://www.w3.org/2000/svg" width="76" height="56" fill="none"><g fill="#858585" clip-path="url(#a)"><path d="M27.148 44.045c-.151.029-1.365.249-2.639.285-2.267.059-4.247-.813-4.262-2.395-.03-2.74 2.837-4.243 4.952-4.66.948-.184 2.776-.396 4.596.036l-1.054 2.447c-.304-.666-1.085-.681-1.403-.688a4.453 4.453 0 0 0-1.88.388c-1.07.476-2.003 1.993-.486 2.579.834.322 1.91.066 3.018-.102l-.842 2.11ZM71.359 37.209l-1.82 4.784c.023-.483.121-2.381.182-3.48.023-.455-.076-.799-.296-1.026-.273-.279-.63-.279-.637-.279h-4.057l-2.654 6.968h2.95l1.88-4.93-.22 4.93h4.945l2.654-6.968H71.36ZM54.517 37.209h-3.398l-2.654 6.967h6.825l.88-2.315h-3.42l1.767-4.652ZM41.943 37.209l-2.654 6.967h7.364l.712-1.875h-4.064l.296-.777h3.799l.652-1.714h-3.8l.297-.777h3.98l.698-1.825h-7.28ZM36.65 37.209l-.963 2.513h-1.76l.956-2.514h-3.329l-2.646 6.968h3.321l.903-2.359h1.767l-.91 2.36h3.329l2.654-6.968H36.65ZM16.88 37.209l-2.661 6.967h3.496l2.654-6.968H16.88ZM12.255 44.176l2.654-6.968H9.972l-2.548 3.745s.16-1.957.205-2.433c.03-.359-.015-1.312-.918-1.312H2.654L0 44.177h3.17l1.926-5.04-.402 5.04h2.814l3.45-4.953-1.88 4.953h3.177ZM59.271 37.209l-2.661 6.967h3.495l2.655-6.968H59.27Z"/><path fill-rule="evenodd" d="m60.22 17.623-.008-.014c-.144-.403-.539-.916-1.19-1.055-.236-.47-.721-.762-1.282-.762-.13 0-.236.014-.304.029-.038.007-.174.037-1.251.286l-1.585.366c.136-.388.121-.784-.053-1.128a1.274 1.274 0 0 0-1.122-.704c-.167 0-.319.037-.47.103l-.017.008c-.062.03-.198.095-2.994 1.853a.924.924 0 0 0-.106.073c-1.373 1.158-1.873 1.832-1.987 2.008l-.022.034c-.063.099-.163.254-.251.45a4.468 4.468 0 0 0-1.972-.469c-1.084 0-1.85.402-2.047.527-.106.059-.508.293-1.123.747-.242.183-.47.396-.66.638-.409.088-.743.198-.993.322-.31.154-.63.396-.963.652l-.023.015-.087.066a4.528 4.528 0 0 0-.952.945l-.037.007a5.361 5.361 0 0 0-1.48.587c-.318.007-.826.066-1.478.249l-.03-.008c-.004 0-.008 0-.015-.002l-.018-.003c-.13-.022-.58-.097-1.128-.097-.257 0-.508.014-.735.051l-.04.006a8.47 8.47 0 0 0-1.052.214 5.232 5.232 0 0 0-1.327.6c-1.29-.285-2.601-.38-3.413-.417.774-1.004 1.16-2.176 1.032-3.18-.243-1.883-1.563-2.997-2.033-3.334-.826-3.297-3.192-4.696-5.156-4.916-.387-.432-1.13-.704-1.957-.704-.334 0-.667.044-.986.125-1.046.278-1.873 1.055-2.04 1.89-1.046.843-2.677 2.726-2.23 6.111-.393.513-1.152 1.825-.636 3.803.356 1.355 1.228 2.337 2.533 2.85a10.59 10.59 0 0 0-2.693 1.758.97.97 0 0 0-.083.081c-1.76.096-3.352.799-4.626 2.044-1.342 1.32-2.017 2.91-2.35 4.008l-.016.044h29.113c.19-.029.584-.132.955-.278.5-.19.872-.41 1.145-.667.6-.08 1.054-.227 1.358-.33 0 0 .09-.029.121-.036.523-.169 1.73-.777 2.176-1.62.895-.33 1.563-.769 1.972-1.304.775-.13 1.377-.456 1.706-.633l.008-.004c.781-.425 1.327-.843 1.676-1.275.288-.36.462-.63.599-.93.265-.133.561-.308.955-.565 1.365-.886 1.654-2.491 1.684-2.674a.62.62 0 0 0 .015-.117c.068.007.137.007.205.007 1.37 0 3.15-.826 4.114-1.273l.004-.002.015-.007c.066-.029.126-.058.179-.083.068-.032.124-.059.162-.071.319-.132.978-.47 1.66-.916.865-.557 1.457-1.084 1.768-1.553.053-.081.09-.162.121-.242l.561-.337a1.05 1.05 0 0 0 .387-.418c.152-.08.28-.154.326-.183.447-.3.63-.777.47-1.246Zm-47.45 13.87a7.171 7.171 0 0 1 1.858-2.579c.736-.66 1.63-1.216 2.67-1.663.098-.037.333-.095.629-.08.151.01.341.035.545.063.42.057.895.123 1.207.068.098-.014.22-.139-.038-.212-.076-.022-.72-.286-.637-.594v-.014c.022-.08.144-.183.31-.198.515-.047.878-.1 1.116-.136.099-.015.177-.026.234-.033.122-.014.213-.044.235-.095.016-.044-.015-.073-.144-.066-1.228.073-2.805-.183-3.503-.38-1.16-.353-1.896-1.107-2.192-2.243-.349-1.319.008-2.366.463-2.938.235-.271.63-.623.743-.718.268-.209.147-.194-.11-.162l-.133.015c-.25.03-.318-.073-.333-.168a7.287 7.287 0 0 1-.038-.498c-.03-1.011.152-1.92.546-2.719a5.052 5.052 0 0 1 1.486-1.773c.19-.132.47-.322.675-.425.319-.161.144-.27-.258-.183 0 0-.129.03-.09-.073a.36.36 0 0 0 .01-.026 2.145 2.145 0 0 1 .117-.201c.229-.279.608-.55 1.063-.675.85-.227 1.66.008 1.843.264.015.044.015.08-.046.103-.152.059-.258.161-.008.19.02.003.056.004.11.005a6.596 6.596 0 0 1 .573.036c.008.002.015.003.023.003 1.524.154 3.367 1.217 4.148 3.722a9.71 9.71 0 0 1 .068.25c.023.088.046.183.06.278-.181.037-.242.154-.06.22a1.53 1.53 0 0 1 .364.198.23.23 0 0 0 .053.036l.01.008.014.01c.037.026.095.066.143.107.66.52 1.32 1.4 1.464 2.52.12.96-.425 2.008-1.077 2.726-.258.264-.706.674-1.487 1.136-.174.102-.015.234.857-.066a.939.939 0 0 0 .048-.012c.073-.018.164-.042.225.012.084.08.107.44-.204.784-.304.337.144.22.667-.22a.834.834 0 0 0 .22-.279c.455 0 1.858.022 3.329.279a4.76 4.76 0 0 0-.766 1.048c-.652 1.223-.842 2.52-.561 3.861.174.82.698 2.008 1.372 2.674.463.462 1.16 1.15 2.495 1.517.402.11.85.169 1.327.169h-22.18a6.878 6.878 0 0 1 .545-2.873Zm22.886 1.843.032-.007.022-.004c.068-.007.25-.051.478-.132a4.714 4.714 0 0 1-.903-.315 5.381 5.381 0 0 1-1.645-1.172 5.013 5.013 0 0 1-1.092-1.861 5.426 5.426 0 0 1-.25-2.198c.068-.733.333-1.451.758-2.088.296-.433.66-.828 1.077-1.15-.038 0-.084.007-.13.014 0 0-.545.073-.947.183-.395.11-1.73.608-2.45 1.949a4.66 4.66 0 0 0-.477 3.268c.159.755.644 1.736 1.13 2.22.485.483 1.023.99 2.085 1.282a4.1 4.1 0 0 0 1.092.14c.567 0 1.037-.093 1.22-.13Zm3.466-1.278-.123.04c-.378.126-.978.326-1.772.326h-.084c-.933-.015-2.017-.484-2.813-1.319-.797-.835-1.229-2.117-1.107-3.363.12-1.246.902-2.293 1.842-2.865.22-.132.448-.234.668-.308.098-.029.19-.058.28-.087-.015.021-.03.044-.053.073-.963 1.377-.895 3.136-.425 4.183.243.543.524.997.865 1.393.44.52.978.916 1.585 1.172a4.422 4.422 0 0 0 1.76.366c.06 0 .128 0 .189-.007a4.853 4.853 0 0 1-.812.396Zm.622-1.305a4 4 0 0 0 1.297-.227c.371-.124.804-.3 1.168-.535a4.974 4.974 0 0 1-1.48-.476 5.062 5.062 0 0 1-1.94-1.758l-.016-.03c-.993-1.619-.857-2.982-.546-3.854-.47.205-1.084.572-1.501 1.173-.774 1.113-.69 2.535-.341 3.319.356.784.925 1.648 1.971 2.103.493.205.956.285 1.388.285Zm5.043-2.183c-.425.234-1.016.542-1.76.557h-.098c-1.114 0-2.457-.513-3.344-1.869-1.562-2.55.144-4.293.705-4.71l.183-.14c.276-.208.538-.407.75-.528a4.332 4.332 0 0 0-.19.682c-.113.645-.015 1.465.281 2.205a4.494 4.494 0 0 0 1.956 2.272c.728.417 1.48.622 2.238.622.204 0 .401-.014.576-.044-.357.41-.94.755-1.297.953Zm14.15-10.302c.114-.059.236-.124.327-.183.076-.044.113-.103.083-.19-.076-.198-.303-.506-.69-.506a.921.921 0 0 0-.227.037l-.046.014c-.265.088-.41.125-.485.14l-3.784 1.091a.156.156 0 0 1-.099.008.196.196 0 0 1-.152-.132.185.185 0 0 1 .13-.242l4.261-1.21a.025.025 0 0 0-.003-.009c-.002-.005-.004-.01-.004-.02-.084-.322-.342-.38-.5-.38-.054 0-.092 0-.115.007-.09.022-4.724 1.099-5.354 1.23l-.028.008c-.162.041-.7.179-1.04.322-.114.044-.122-.065-.023-.139a5.88 5.88 0 0 1 1.061-.527 1.57 1.57 0 0 0 .296-.176l.03-.022c.305-.23.678-.512 1.009-.93.417-.528.083-.931-.16-.931-.03 0-.053.007-.075.014-.13.066-2.905 1.803-2.905 1.803-.493.418-.864.762-1.137 1.04a6.35 6.35 0 0 0-.675.77c-.258.359-.38.615-.38.615a4.146 4.146 0 0 0-.083.242s-1 .564-1.213.674c-.25.127-.383.281-.476.389-.068.078-.114.131-.169.131-.174.008.084-.615.266-.879a1.2 1.2 0 0 1 .334-.3 3.393 3.393 0 0 0-1.305-.271c-.895 0-1.494.38-1.494.38s-.379.206-1.016.682c-.955.71-1.137 1.912-1.137 1.912-.152.814.166 2.63 1.79 3.554.667.38 1.266.498 1.759.498.644 0 1.103-.204 1.285-.285a3.27 3.27 0 0 1 .034-.015c.243-.103.5-.227 1.122-.63 1.009-.652 1.214-1.957 1.214-1.957l-.357.22s-.925.564-1.425.498c-.455-.066-1.017-.747-.781-.74a.63.63 0 0 1 .125.032c.218.067.645.198.99-.002.166-.103.802-.476 1.227-.725-.12-.492.024-.763.41-.382.273.264 1.168.25 1.365.242h.046a2.27 2.27 0 0 0 .447-.066c1.052-.22 2.283-.789 2.961-1.103.183-.085.325-.15.414-.186.546-.228 2.457-1.29 3.01-2.133.042-.06.008-.12-.004-.141l-.003-.005a.618.618 0 0 0-.402-.213c-.235-.022-.508.103-.789.36a5.47 5.47 0 0 1-2.058 1.183l-.012.003c-.023.008-.038.008-.053.008a.193.193 0 0 1-.19-.14.188.188 0 0 1 .137-.234c.023 0 1-.271 1.903-1.092.364-.344.736-.498 1.092-.469.326.03.539.198.637.308.205-.117.698-.41.706-.418h.001c.016-.015.122-.11-.002-.293a.569.569 0 0 0-.348-.249c-.288-.066-.72.08-1.297.44-1.062.652-2.616 1.011-2.685 1.026-.015.007-.03.007-.045.007a.2.2 0 0 1-.19-.147.186.186 0 0 1 .144-.234l.04-.01c.246-.062 1.611-.404 2.524-.972.682-.432 1.198-.593 1.6-.498a1.008 1.008 0 0 1 .637.498Zm-36.028-1.23c0 .248.038.512.107.754.075.242.174.483.326.689.129.175.288.351.508.417 0 0 .007 0 .022.008.008 0 .016 0 .016.007.053.015.106.015.159.015.083 0 .174-.015.28-.037l.015-.003c.102-.021.21-.043.304-.092.121-.059.19-.213.227-.33.054-.132.076-.271.084-.41a2.016 2.016 0 0 0-.091-.704c.144.63-.053 1.202-.432 1.29-.387.088-.812-.352-.956-.982a1.828 1.828 0 0 1-.045-.484c.083.11.204.169.318.14.16-.044.243-.235.19-.433-.046-.175-.19-.293-.326-.293a.537.537 0 0 1 .303-.212c.25-.059.516.11.713.403-.046-.088-.106-.169-.167-.25-.152-.197-.356-.38-.607-.432l-.017-.002a.658.658 0 0 0-.112-.012.793.793 0 0 0-.591.264c-.182.19-.228.454-.228.688Zm-.144.761c-.076-.27-.174-.689-.144-1.084.03-.572.334-.894.698-1.004.447-.14.918.08 1.19.41.152.184.311.455.425.733.046.095.084.19.121.3.114.316.16.623.145.916a1.617 1.617 0 0 1-.099.484c-.06.161-.16.359-.341.454a1.36 1.36 0 0 1-.372.117h-.007a1.591 1.591 0 0 1-.334.044.97.97 0 0 1-.235-.029h-.014c-.003-.001-.005-.003-.009-.007h-.008c-.295-.095-.485-.308-.636-.506a2.226 2.226 0 0 1-.281-.527s-.015-.037-.038-.103l-.006-.018a.622.622 0 0 1-.031-.099v-.015c-.016-.03-.024-.044-.024-.066Zm-3.29 1.282c.158.294.356.513.56.63a.647.647 0 0 0 .334.088c.099 0 .212-.014.349-.058h.007a2.33 2.33 0 0 0 .326-.103c.175-.073.319-.307.387-.623.023-.117.038-.241.038-.366-.045.389-.242.696-.53.762-.433.095-.91-.344-1.07-.989a1.462 1.462 0 0 1-.045-.506c.083.096.204.147.31.118.16-.044.25-.242.19-.44-.045-.161-.174-.271-.303-.286a.6.6 0 0 1 .341-.234c.31-.073.652.146.872.52a.478.478 0 0 0-.023-.059c-.212-.417-.591-.842-1.296-.659-.933.242-.72 1.421-.622 1.788.045.139.106.278.174.417Zm-.236.118a2.531 2.531 0 0 1-.296-.902 2.993 2.993 0 0 1-.007-.937c.053-.3.197-.58.455-.762.212-.147.485-.242.758-.242.068 0 .144.007.212.022.675.132.994.666 1.26 1.414.295.82.09 1.846-.456 2.073-.136.06-.364.11-.364.11-.144.037-.28.066-.424.066a.922.922 0 0 1-.47-.124c-.289-.147-.516-.433-.668-.718Zm5.415 2c-.857.447-1.82.689-2.784.813.258.117.524.213.812.235.258.022.523-.022.773-.096.258-.073.5-.183.706-.351.212-.169.364-.381.493-.601Zm1.281-.799c-.051.007-.074-.054-.103-.13l-.003-.009c-.109.139-.294.323-.423.452-.07.069-.122.121-.138.142a2.277 2.277 0 0 0-.205.315l-.062.107a4.809 4.809 0 0 1-.264.427 2.132 2.132 0 0 1-.637.572c-.478.279-1.077.41-1.623.322-.288-.043-.561-.153-.826-.27l-.091-.046c-.186-.092-.384-.19-.592-.197a5.003 5.003 0 0 1-.811-.021c-.091-.008-.175-.044-.205-.14a.196.196 0 0 1 .182-.256c.04 0 .074.006.112.012l.017.003c.083.007.174.014.258.014a9.029 9.029 0 0 0 2.866-.395 5.87 5.87 0 0 0 1.608-.733c.197-.14.394-.286.553-.462a.78.78 0 0 1 .076-.088l-.017-.009c-.011-.006-.023-.013-.028-.013-.046-.014-.053-.102.038-.124a.32.32 0 0 1 .265.073.382.382 0 0 1 .106.227c.023.088.008.213-.053.227Zm-5.824 1.107c-.25.168-.31.293-.349.373a.285.285 0 0 0-.015.206c.015.044 0 .08-.038.095h-.007a.128.128 0 0 1-.091 0c-.023-.008-.038-.03-.046-.052-.068-.153 0-.49.182-.652.068-.058.167-.124.243-.16.03-.015.121-.045.167.014.053.08 0 .146-.046.176ZM7.901 34.366H11.3a7.491 7.491 0 0 1 .614-3.202 7.788 7.788 0 0 1 1.001-1.73c-1.137.228-2.146.77-3.01 1.62-.865.85-1.57 2.022-2.002 3.312Z" clip-rule="evenodd"/><path d="M75.833 33.142H4.201l-.66 1.744h71.625l.667-1.744Z"/></g><defs><clipPath id="a"><path fill="#fff" d="M0 0h75.833v56H0z"/></clipPath></defs></svg>